<svg xmlns="http://www.w3.org/2000/svg" width="256" height="256" viewBox="0 0 256 256" role="img" aria-labelledby="title desc">
  <title id="title">Relaxed Tux at a dictation workstation</title>
  <desc id="desc">A KDE-style icon showing a penguin reclining in an office chair with flippers behind his head, wearing a headset, feet resting on a small stool, and working across two level monitors: one with a live audio meter and one with a spreadsheet-like dictation popover.</desc>
  <defs>
    <linearGradient id="tileBg" x1="0" y1="0" x2="1" y2="1">
      <stop offset="0%" stop-color="#18120E"/>
      <stop offset="55%" stop-color="#100D0A"/>
      <stop offset="100%" stop-color="#0F0C0C"/>
    </linearGradient>
    <linearGradient id="deskGrad" x1="0" y1="0" x2="0" y2="1">
      <stop offset="0%" stop-color="#221712"/>
      <stop offset="100%" stop-color="#120C09"/>
    </linearGradient>
    <linearGradient id="bezelGrad" x1="0" y1="0" x2="0" y2="1">
      <stop offset="0%" stop-color="#241A15"/>
      <stop offset="100%" stop-color="#100B08"/>
    </linearGradient>
    <linearGradient id="screenGrad" x1="0" y1="0" x2="0" y2="1">
      <stop offset="0%" stop-color="#120D09"/>
      <stop offset="100%" stop-color="#060403"/>
    </linearGradient>
    <linearGradient id="pillGrad" x1="0" y1="0" x2="1" y2="1">
      <stop offset="0%" stop-color="#1C1414"/>
      <stop offset="100%" stop-color="#2D211E"/>
    </linearGradient>
    <linearGradient id="barGrad" x1="0" y1="1" x2="0" y2="0">
      <stop offset="0%" stop-color="#8C553D"/>
      <stop offset="55%" stop-color="#D39A4C"/>
      <stop offset="100%" stop-color="#F2D77A"/>
    </linearGradient>
    <linearGradient id="chairGrad" x1="0" y1="0" x2="0" y2="1">
      <stop offset="0%" stop-color="#2B3038"/>
      <stop offset="100%" stop-color="#181C22"/>
    </linearGradient>
    <linearGradient id="penguinBody" x1="0" y1="0" x2="0" y2="1">
      <stop offset="0%" stop-color="#1E222A"/>
      <stop offset="100%" stop-color="#08090B"/>
    </linearGradient>
    <linearGradient id="penguinBelly" x1="0" y1="0" x2="1" y2="1">
      <stop offset="0%" stop-color="#F7F1E8"/>
      <stop offset="100%" stop-color="#D9D1C6"/>
    </linearGradient>
    <linearGradient id="headsetGrad" x1="0" y1="0" x2="1" y2="1">
      <stop offset="0%" stop-color="#D6F8FF"/>
      <stop offset="100%" stop-color="#8EAAB2"/>
    </linearGradient>
    <linearGradient id="potGrad" x1="0" y1="0" x2="0" y2="1">
      <stop offset="0%" stop-color="#4D392D"/>
      <stop offset="100%" stop-color="#2A1E18"/>
    </linearGradient>
    <linearGradient id="stoolGrad" x1="0" y1="0" x2="0" y2="1">
      <stop offset="0%" stop-color="#3A404A"/>
      <stop offset="100%" stop-color="#1B1E24"/>
    </linearGradient>
    <filter id="shadow" x="-30%" y="-30%" width="160%" height="160%">
      <feDropShadow dx="0" dy="5" stdDeviation="6" flood-color="#000000" flood-opacity="0.38"/>
    </filter>
    <filter id="soft" x="-20%" y="-20%" width="140%" height="140%">
      <feDropShadow dx="0" dy="2" stdDeviation="2.4" flood-color="#000000" flood-opacity="0.28"/>
    </filter>
    <clipPath id="leftScreenClip">
      <rect x="0" y="0" width="76" height="54" rx="7"/>
    </clipPath>
    <clipPath id="rightScreenClip">
      <rect x="0" y="0" width="66" height="58" rx="8"/>
    </clipPath>
  </defs>

  <rect x="13" y="13" width="230" height="230" rx="40" fill="url(#tileBg)" stroke="#745844" stroke-width="2.3"/>
  <rect x="21" y="21" width="214" height="214" rx="33" fill="none" stroke="#2D231C" stroke-width="1.3" opacity="0.9"/>
  <path d="M28 42 C55 22, 122 18, 223 28" fill="none" stroke="#4D392D" stroke-width="1.4" opacity="0.55"/>
  <ellipse cx="122" cy="210" rx="82" ry="19" fill="#000000" opacity="0.18"/>

  <!-- leveled desk -->
  <g filter="url(#shadow)">
    <path d="M54 114 L222 114 L208 162 L41 162 Z" fill="url(#deskGrad)" stroke="#745844" stroke-width="2.2" stroke-linejoin="round"/>
    <path d="M41 162 L208 162 L206 170 L39 170 Z" fill="#0B0806" opacity="0.95"/>
    <path d="M59 120 L217 120" stroke="#2D231C" stroke-width="1.4" opacity="0.65"/>
    <path d="M54 114 L222 114" stroke="#DCC3A4" stroke-width="0.6" opacity="0.2"/>
  </g>

  <!-- plant -->
  <g transform="translate(24 150)" filter="url(#soft)">
    <ellipse cx="20" cy="44" rx="20" ry="6" fill="#000" opacity="0.22"/>
    <path d="M8 33 L32 33 L28 49 L12 49 Z" fill="url(#potGrad)" stroke="#745844" stroke-width="1.4"/>
    <path d="M20 34 C20 21 20 12 20 0" stroke="#4D6B5A" stroke-width="3" stroke-linecap="round"/>
    <path d="M20 20 C6 10 5 0 12 -12" stroke="#5B806A" stroke-width="4.8" stroke-linecap="round" fill="none"/>
    <path d="M20 16 C30 5 36 -5 34 -18" stroke="#5B806A" stroke-width="4.2" stroke-linecap="round" fill="none"/>
    <path d="M20 24 C10 17 0 16 -8 22" stroke="#4F6F5E" stroke-width="3.8" stroke-linecap="round" fill="none"/>
    <path d="M20 25 C30 18 41 18 48 25" stroke="#4F6F5E" stroke-width="3.8" stroke-linecap="round" fill="none"/>
  </g>

  <!-- monitors -->
  <g transform="translate(75 50)" filter="url(#shadow)">
    <rect x="0" y="0" width="72" height="64" rx="11" fill="url(#bezelGrad)" stroke="#745844" stroke-width="1.8"/>
    <rect x="6" y="6" width="60" height="52" rx="8" fill="url(#screenGrad)"/>
    <g clip-path="url(#rightScreenClip)" transform="translate(6 6)">
      <rect x="0" y="0" width="60" height="52" fill="#090604"/>
      <rect x="4" y="4" width="52" height="44" rx="12" fill="url(#pillGrad)" stroke="#4D392D" stroke-width="0.8"/>
      <rect x="8" y="8" width="20" height="7" rx="3.5" fill="#2C4937"/>
      <circle cx="24" cy="11.5" r="2.8" fill="#9EB26B"/>
      <rect x="33" y="8" width="19" height="7" rx="3.5" fill="#3B2A28"/>
      <circle cx="48" cy="11.5" r="2.8" fill="#C8B08D"/>
      <g transform="translate(8 18)">
        <rect x="0" y="0" width="44" height="16" rx="2" fill="#120D09" stroke="#2D231C" stroke-width="0.6"/>
        <g>
          <rect x="1" y="10" width="2" height="5" rx="1" fill="url(#barGrad)"/>
          <rect x="5" y="9" width="2" height="6" rx="1" fill="url(#barGrad)"/>
          <rect x="9" y="8" width="2" height="7" rx="1" fill="url(#barGrad)"/>
          <rect x="13" y="5" width="2" height="10" rx="1" fill="url(#barGrad)"/>
          <rect x="17" y="4" width="2" height="11" rx="1" fill="url(#barGrad)"/>
          <rect x="21" y="6" width="2" height="9" rx="1" fill="url(#barGrad)"/>
          <rect x="25" y="8" width="2" height="7" rx="1" fill="url(#barGrad)"/>
          <rect x="29" y="9" width="2" height="6" rx="1" fill="url(#barGrad)"/>
          <rect x="33" y="7" width="2" height="8" rx="1" fill="url(#barGrad)"/>
          <rect x="37" y="5" width="2" height="10" rx="1" fill="url(#barGrad)"/>
          <rect x="41" y="8" width="2" height="7" rx="1" fill="url(#barGrad)"/>
        </g>
      </g>
      <rect x="8" y="37" width="39" height="3.8" rx="1.9" fill="#F4EFE5" opacity="0.9"/>
      <rect x="8" y="43" width="31" height="3.8" rx="1.9" fill="#A89B8E" opacity="0.85"/>
    </g>
    <rect x="31" y="64" width="10" height="16" rx="3" fill="#2D231C"/>
    <rect x="18" y="78" width="36" height="6" rx="3" fill="#201813"/>
  </g>
<g transform="translate(150 48)" filter="url(#shadow)">
    <rect x="0" y="0" width="82" height="60" rx="10" fill="url(#bezelGrad)" stroke="#745844" stroke-width="1.8"/>
    <rect x="6" y="6" width="70" height="48" rx="7" fill="url(#screenGrad)"/>
    <g clip-path="url(#leftScreenClip)" transform="translate(6 6)">

      <!-- Spreadsheet background -->
      <rect x="0" y="0" width="70" height="48" fill="#1C1414"/>
      <!-- Cell background -->
      <rect x="8" y="6" width="62" height="42" fill="#0C0907"/>

      <!-- Grid lines -->
      <g stroke="#2D231C" stroke-width="0.5">
        <!-- Horizontal -->
        <path d="M0 6 H70"/><path d="M0 13 H70"/><path d="M0 20 H70"/><path d="M0 27 H70"/><path d="M0 34 H70"/><path d="M0 41 H70"/>
        <!-- Vertical -->
        <path d="M8 0 V48"/><path d="M22 0 V48"/><path d="M36 0 V48"/><path d="M50 0 V48"/><path d="M64 0 V48"/>
      </g>
      
      <!-- Row numbers (mock) -->
      <rect x="2" y="8" width="4" height="3" fill="#3A2B23" rx="0.5"/>
      <rect x="2" y="15" width="4" height="3" fill="#3A2B23" rx="0.5"/>
      <rect x="2" y="22" width="4" height="3" fill="#3A2B23" rx="0.5"/>
      <rect x="2" y="29" width="4" height="3" fill="#3A2B23" rx="0.5"/>
      <rect x="2" y="36" width="4" height="3" fill="#3A2B23" rx="0.5"/>
      
      <!-- Column letters (mock) -->
      <rect x="13" y="2" width="4" height="2" fill="#3A2B23" rx="0.5"/>
      <rect x="27" y="2" width="4" height="2" fill="#3A2B23" rx="0.5"/>
      <rect x="41" y="2" width="4" height="2" fill="#3A2B23" rx="0.5"/>
      <rect x="55" y="2" width="4" height="2" fill="#3A2B23" rx="0.5"/>

      <!-- Data blocks inside cells -->
      <!-- Row 1 -->
      <rect x="10" y="8" width="10" height="3" fill="#A89B8E" rx="0.5"/>
      <rect x="24" y="8" width="8" height="3" fill="#A89B8E" rx="0.5"/>
      <rect x="38" y="8" width="9" height="3" fill="#D39A4C" rx="0.5"/>
      <!-- Row 2 -->
      <rect x="10" y="15" width="7" height="3" fill="#A89B8E" rx="0.5"/>
      
      <!-- Active cell (Row 2, Col 2) -->
      <rect x="22.5" y="13.5" width="13" height="6" fill="#122B28" stroke="#53E2CD" stroke-width="0.8"/>
      <!-- Cursor / selection start -->
      <rect x="24" y="15" width="10" height="3" fill="#53E2CD" opacity="0.3" rx="0.5"/> 
      <!-- Text being typed -->
      <rect x="24" y="15" width="6" height="3" fill="#FFFFFF" rx="0.5"/>
      
      <!-- Row 3 -->
      <rect x="10" y="22" width="11" height="3" fill="#A89B8E" rx="0.5"/>
      <rect x="24" y="22" width="6" height="3" fill="#A89B8E" rx="0.5"/>
      <rect x="38" y="22" width="10" height="3" fill="#D39A4C" rx="0.5"/>
      
      <!-- Row 4 -->
      <rect x="10" y="29" width="9" height="3" fill="#A89B8E" rx="0.5"/>
      <rect x="24" y="29" width="9" height="3" fill="#A89B8E" rx="0.5"/>
      
      <!-- Dictation popover/tooltip overlay floating next to active cell -->
      <g transform="translate(18 21)" filter="url(#shadow)">
        <rect x="0" y="0" width="34" height="18" rx="2" fill="#181C22" stroke="#4D392D" stroke-width="0.8"/>
        <!-- Mic icon in tooltip -->
        <circle cx="6" cy="6" r="2.5" fill="#181C22" stroke="#53E2CD" stroke-width="0.8"/>
        <path d="M6 3.5 V5.5" stroke="#53E2CD" stroke-width="1.5" stroke-linecap="round"/>
        <path d="M4 6.5 C4 7.5 5 8.5 6 8.5 C7 8.5 8 7.5 8 6.5" stroke="#53E2CD" stroke-width="0.8" fill="none"/>
        <path d="M6 8.5 V10" stroke="#53E2CD" stroke-width="0.8"/>
        
        <!-- Dropdown candidate list text -->
        <rect x="10" y="2.5" width="22" height="4" fill="#53E2CD" opacity="0.2" rx="1"/> <!-- Selection highlight in dropdown -->
        <rect x="11" y="3" width="18" height="3" fill="#FFFFFF" rx="1"/> <!-- committed/top choice -->
        <rect x="11" y="8" width="14" height="2" fill="#A89B8E" rx="1"/> <!-- alternative 1 -->
        <rect x="11" y="12" width="16" height="2" fill="#A89B8E" rx="1"/> <!-- alternative 2 -->
      </g>
    </g>
    <rect x="36" y="60" width="10" height="14" rx="3" fill="#2D231C"/>
    <rect x="24" y="72" width="34" height="6" rx="3" fill="#201813"/>
  </g>

  <!-- chair -->
  <g transform="translate(85 142) rotate(-5)" filter="url(#soft)">
    <ellipse cx="15" cy="58" rx="27" ry="8" fill="#000" opacity="0.18"/>
    <!-- Spine connector -->
    <path d="M15 55 L2 20" stroke="#1B1E24" stroke-width="8" stroke-linecap="round"/>
    <!-- Backrest -->
    <rect x="-8" y="0" width="26" height="46" rx="9" fill="url(#chairGrad)" stroke="#4D392D" stroke-width="1.3"/>
    <!-- Seat -->
    <rect x="-6" y="36" width="36" height="16" rx="8" fill="url(#chairGrad)" stroke="#4D392D" stroke-width="1.1"/>
    <!-- Base column -->
    <rect x="11" y="48" width="8" height="24" rx="4" fill="#2A3037"/>
    <!-- Legs (side profile) -->
    <path d="M15 70 L-5 84 M15 70 L25 84 M15 70 L15 87" stroke="#2A3037" stroke-width="4.5" stroke-linecap="round"/>
    <!-- Wheels -->
    <circle cx="-5" cy="84" r="3.5" fill="#1B1E24"/><circle cx="25" cy="84" r="3.5" fill="#1B1E24"/><circle cx="15" cy="87" r="3.5" fill="#1B1E24"/>
  </g>

  <!-- footstool -->
  <g transform="translate(113 168)" filter="url(#shadow)">
    <rect x="0" y="0" width="38" height="8" rx="3" fill="url(#stoolGrad)"/>
    <path d="M8 8 L4 28 M30 8 L34 28" stroke="#1B1E24" stroke-width="3" stroke-linecap="round"/>
    <ellipse cx="19" cy="4" rx="11" ry="4" fill="#000" opacity="0.3"/>
  </g>

  <!-- penguin -->
  <g transform="translate(100 135) rotate(-5)" filter="url(#shadow)">
    <!-- legs to stool -->
    <path d="M6 22 C13 28 23 30 33 35" stroke="#121419" stroke-width="10" stroke-linecap="round" fill="none"/>
    <path d="M0 28 C8 35 16 38 23 42" stroke="#181C22" stroke-width="9" stroke-linecap="round" fill="none"/>

    <!-- flippers behind head -->
    <path d="M-23 -18 C-42 -30 -43 -47 -34 -56 C-22 -49 -14 -35 -11 -22 Z" fill="#121419" stroke="#3A404A" stroke-width="1.5"/>
    <path d="M-7 -17 C8 -31 17 -44 26 -44 C27 -31 21 -21 5 -8 Z" fill="#121419" stroke="#3A404A" stroke-width="1.5"/>

    <!-- body and head -->
    <ellipse cx="0" cy="12" rx="31" ry="37" fill="url(#penguinBody)"/>
    <ellipse cx="5" cy="6" rx="13" ry="22" fill="url(#penguinBelly)" opacity="0.96"/>
    <circle cx="-2" cy="-31" r="22" fill="url(#penguinBody)"/>
    <path d="M1 -43 C11 -41 16 -32 14 -21 C6 -20 -2 -25 -4 -35 Z" fill="#F1ECE4"/>
    <!-- right eye -->
    <ellipse cx="7.5" cy="-36.5" rx="1.8" ry="2.8" fill="#0B0806"/>
    <circle cx="8" cy="-37.5" r="0.6" fill="#FFFFFF"/>
    <!-- beak -->
    <path d="M12 -34 L22 -31 L13 -24 Z" fill="#D39A4C" stroke="#8C553D" stroke-width="1"/>

    <!-- headset -->
    <path d="M-8 -56 C-14 -56 -20 -48 -20 -38 C-20 -28 -14 -20 -8 -20" stroke="url(#headsetGrad)" stroke-width="3" fill="none" stroke-linecap="round"/>
    <rect x="-14" y="-36" width="16" height="24" rx="6" fill="#1A1F26" stroke="url(#headsetGrad)" stroke-width="1.5"/>
    <path d="M-8 -24 C0 -20 10 -16 16 -16" stroke="url(#headsetGrad)" stroke-width="2.5" fill="none" stroke-linecap="round"/>
    <circle cx="16" cy="-16" r="3" fill="#53E2CD"/>

    <!-- feet on stool -->
    <g transform="translate(36 33)">
      <ellipse cx="0" cy="0" rx="11" ry="6" fill="#D39A4C" stroke="#8C553D" stroke-width="1.1"/>
      <path d="M-6 1.5 L-6 4.5 M0 1.5 L0 5 M6 1.5 L6 4.5" stroke="#8C553D" stroke-width="1.1" stroke-linecap="round"/>
    </g>
    <g transform="translate(26 41)">
      <ellipse cx="0" cy="0" rx="10" ry="5.5" fill="#D39A4C" stroke="#8C553D" stroke-width="1.1"/>
      <path d="M-5.5 1.5 L-5.5 4 M0 1.5 L0 4.5 M5.5 1.5 L5.5 4" stroke="#8C553D" stroke-width="1.1" stroke-linecap="round"/>
    </g>
  </g>

  <!-- subtle warm highlights -->
  <path d="M54 114 L222 114" stroke="#D6A356" stroke-width="0.8" opacity="0.28"/>
  <circle cx="93" cy="58" r="22" fill="#D6A356" opacity="0.03"/>
</svg>
